<svg width="706" height="732" viewBox="0 0 706 732" fill="none" xmlns="http://www.w3.org/2000/svg">
<path d="M352.987 1.24243C547.66 1.2427 705.474 159.057 705.474 353.73C705.473 548.402 547.66 706.216 352.987 706.216C158.314 706.216 0.500264 548.403 0.5 353.73C0.5 159.057 158.314 1.24243 352.987 1.24243Z" stroke="white"/>
<path d="M49.1161 204.959C38.2802 207.545 27.4004 200.856 24.8153 190.02C22.2303 179.184 28.9189 168.304 39.7547 165.719C50.5906 163.134 61.4704 169.823 64.0555 180.659C66.6405 191.495 59.9519 202.374 49.1161 204.959Z" fill="#4E5E59"/>
<path d="M48.2707 179.792L50.2047 187.899L48.2962 188.354L46.8176 182.156L39.8093 193.58L38.1186 192.466L45.1002 181.085L38.9197 182.56L38.4602 180.634L46.5667 178.7L48.2707 179.792Z" fill="white"/>
<path d="M643.048 180.119C645.932 169.358 656.992 162.973 667.752 165.856C678.513 168.739 684.898 179.799 682.015 190.56C679.132 201.32 668.072 207.706 657.311 204.823C646.551 201.939 640.165 190.879 643.048 180.119Z" fill="#4E5E59"/>
<path d="M665.586 191.353L657.536 189.196L658.043 187.3L664.198 188.95L657.486 177.349L659.27 176.392L665.957 187.949L667.602 181.811L669.514 182.324L667.357 190.374L665.586 191.353Z" fill="white"/>
<path d="M367.25 688.342C375.127 696.219 375.127 708.991 367.25 716.868C359.372 724.745 346.601 724.745 338.724 716.868C330.847 708.991 330.847 696.219 338.724 688.342C346.601 680.465 359.372 680.465 367.25 688.342Z" fill="#4E5E59"/>
<path d="M346.252 702.243L352.145 696.35L353.533 697.737L349.027 702.243L362.429 702.23L362.366 704.254L349.014 704.267L353.507 708.76L352.107 710.16L346.214 704.267L346.252 702.243Z" fill="white"/>
</svg>
