<svg width="24" height="24" viewBox="0 0 24 24" fill="none" xmlns="http://www.w3.org/2000/svg">
<g clip-path="url(#clip0_2_215)">
<path d="M22 20.3805L17.0693 15.2876C17.9668 13.9256 18.4931 12.2833 18.4931 10.515C18.4931 5.8226 14.7922 2 10.2438 2C5.69529 2 2 5.8226 2 10.515C2 15.2074 5.70083 19.03 10.2438 19.03C12.2825 19.03 14.144 18.2575 15.5845 16.9871L20.4321 21.9943L22 20.3748V20.3805ZM10.2438 16.7411C6.91967 16.7411 4.21607 13.9485 4.21607 10.515C4.21607 7.08155 6.91967 4.28898 10.2438 4.28898C13.5679 4.28898 16.2715 7.08155 16.2715 10.515C16.2715 13.9485 13.5679 16.7411 10.2438 16.7411Z" fill="white"/>
</g>
<defs>
<clipPath id="clip0_2_215">
<rect width="20" height="20" fill="white" transform="translate(2 2)"/>
</clipPath>
</defs>
</svg>
