<?xml version="1.0" encoding="utf-8"?>
<!-- Generator: Adobe Illustrator 25.2.1, SVG Export Plug-In . SVG Version: 6.00 Build 0)  -->
<svg version="1.1" id="user" xmlns="http://www.w3.org/2000/svg" xmlns:xlink="http://www.w3.org/1999/xlink" x="0px" y="0px"
	 viewBox="0 0 24 24" style="enable-background:new 0 0 24 24;" xml:space="preserve">
<style type="text/css">
	.st0{fill:#FFFFFF;}
	.st1{fill:#0000FF;}
</style>
<path class="st0" d="M15.1,12.7c2-1.2,3.3-3.6,3.3-5.8c0-3.2-2.6-6.7-6.1-6.7S6.2,3.7,6.2,6.9c0,2.2,1.3,4.6,3.3,5.8
	C4.8,14,1.4,18.3,1.4,23.3c0,0.3,0.3,0.6,0.6,0.6h20.7c0.3,0,0.6-0.3,0.6-0.6C23.2,18.3,19.8,14,15.1,12.7z M7.4,6.9
	c0-3.1,2.6-5.5,4.9-5.5s4.9,2.3,4.9,5.5s-2.6,5.5-4.9,5.5S7.4,10,7.4,6.9z M2.6,22.7c0.3-5.1,4.6-9.1,9.7-9.1s9.4,4,9.7,9.1H2.6z"/>
<path class="st1" d="M1204.6-807V877h-1784V-807H1204.6 M1212.6-815h-1800V885h1800V-815z"/>
</svg>
